<svg width="12" height="12" viewBox="0 0 12 12" fill="none" xmlns="http://www.w3.org/2000/svg">
<path d="M4.27892 0.199636C4.34836 0.284979 4.39089 0.389297 4.40106 0.499188C4.41122 0.609078 4.38856 0.719523 4.33597 0.816333C3.92344 1.57919 3.7081 2.43444 3.70982 3.30325C3.70982 6.19338 6.04754 8.53367 8.92868 8.53367C9.30522 8.53319 9.66964 8.49485 10.0219 8.41867C10.1297 8.39543 10.2419 8.40456 10.3446 8.44493C10.4472 8.4853 10.5359 8.55514 10.5996 8.64579C10.667 8.74014 10.7014 8.85436 10.6974 8.97053C10.6934 9.0867 10.6512 9.19824 10.5775 9.28765C10.0181 9.98009 9.31249 10.538 8.51204 10.9207C7.7116 11.3035 6.8365 11.5014 5.95055 11.5C2.66291 11.5 0 8.83052 0 5.54147C0 3.06605 1.50761 0.942835 3.6542 0.0429461C3.76109 -0.00283889 3.87986 -0.0123131 3.99257 0.0159553C4.10527 0.0442238 4.20579 0.108699 4.27892 0.199636ZM3.4645 0.942116C2.63915 1.3884 1.94917 2.0517 1.46786 2.86153C0.986561 3.67136 0.731915 4.59747 0.730982 5.54147C0.730982 8.43088 3.06941 10.7712 5.95055 10.7712C6.64046 10.7722 7.32374 10.6354 7.96087 10.3687C8.59801 10.102 9.17637 9.71059 9.66251 9.21721C9.42194 9.2474 9.17733 9.26249 8.92868 9.26249C5.64104 9.26249 2.97884 6.59301 2.97884 3.30396C2.97884 2.46517 3.15142 1.66663 3.4645 0.942116Z" fill="black"/>
<path d="M7.14909 2.39077C7.16012 2.35787 7.18136 2.32924 7.20979 2.30894C7.23823 2.28865 7.27242 2.27772 7.3075 2.27772C7.34257 2.27772 7.37676 2.28865 7.4052 2.30894C7.43364 2.32924 7.45488 2.35787 7.4659 2.39077L7.76349 3.27369C7.89652 3.66727 8.20872 3.97576 8.60704 4.10721L9.50058 4.40126C9.53388 4.41215 9.56286 4.43314 9.5834 4.46124C9.60394 4.48934 9.61499 4.52312 9.61499 4.55778C9.61499 4.59244 9.60394 4.62622 9.5834 4.65432C9.56286 4.68242 9.53388 4.70341 9.50058 4.7143L8.60704 5.00835C8.41048 5.07282 8.23186 5.18174 8.08541 5.32644C7.93896 5.47115 7.82873 5.64765 7.76349 5.84188L7.4659 6.72479C7.45488 6.75769 7.43364 6.78632 7.4052 6.80662C7.37676 6.82691 7.34257 6.83784 7.3075 6.83784C7.27242 6.83784 7.23823 6.82691 7.20979 6.80662C7.18136 6.78632 7.16012 6.75769 7.14909 6.72479L6.8515 5.84188C6.78626 5.64765 6.67603 5.47115 6.52958 5.32644C6.38313 5.18174 6.20451 5.07282 6.00795 5.00835L5.11441 4.7143C5.08111 4.70341 5.05213 4.68242 5.03159 4.65432C5.01106 4.62622 5 4.59244 5 4.55778C5 4.52312 5.01106 4.48934 5.03159 4.46124C5.05213 4.43314 5.08111 4.41215 5.11441 4.40126L6.00795 4.10721C6.20451 4.04275 6.38313 3.93382 6.52958 3.78912C6.67603 3.64441 6.78626 3.46791 6.8515 3.27369L7.14909 2.39077ZM9.50904 0.0740844C9.51663 0.0524496 9.53085 0.0336893 9.54973 0.020412C9.56861 0.00713464 9.59121 0 9.61439 0C9.63756 0 9.66016 0.00713464 9.67904 0.020412C9.69792 0.0336893 9.71214 0.0524496 9.71973 0.0740844L9.91813 0.662185C10.0066 0.925083 10.2149 1.13099 10.481 1.21837L11.0762 1.41441C11.0981 1.42191 11.1171 1.43596 11.1305 1.45462C11.1439 1.47327 11.1512 1.4956 11.1512 1.5185C11.1512 1.5414 11.1439 1.56373 11.1305 1.58239C11.1171 1.60104 11.0981 1.6151 11.0762 1.6226L10.481 1.81863C10.35 1.86194 10.231 1.93472 10.1333 2.03124C10.0356 2.12776 9.96196 2.24537 9.91813 2.37482L9.71973 2.96292C9.71214 2.98455 9.69792 3.00331 9.67904 3.01659C9.66016 3.02987 9.63756 3.037 9.61439 3.037C9.59121 3.037 9.56861 3.02987 9.54973 3.01659C9.53085 3.00331 9.51663 2.98455 9.50904 2.96292L9.31065 2.37482C9.26682 2.24537 9.19316 2.12776 9.09548 2.03124C8.9978 1.93472 8.87877 1.86194 8.74777 1.81863L8.15259 1.6226C8.13069 1.6151 8.11171 1.60104 8.09827 1.58239C8.08483 1.56373 8.07761 1.5414 8.07761 1.5185C8.07761 1.4956 8.08483 1.47327 8.09827 1.45462C8.11171 1.43596 8.13069 1.42191 8.15259 1.41441L8.74777 1.21837C9.01383 1.13099 9.22222 0.925083 9.31065 0.662185L9.50904 0.0740844Z" fill="black"/>
</svg>
