<svg width="20" height="18" viewBox="0 0 20 18" fill="none" xmlns="http://www.w3.org/2000/svg">
<path d="M9.65909 12.0312C8.69843 12.0312 7.77712 11.6855 7.09784 11.0702C6.41855 10.4548 6.03693 9.62024 6.03693 8.75C6.03693 7.87976 6.41855 7.04516 7.09784 6.42981C7.77712 5.81445 8.69843 5.46875 9.65909 5.46875C10.6197 5.46875 11.5411 5.81445 12.2203 6.42981C12.8996 7.04516 13.2812 7.87976 13.2812 8.75C13.2812 9.62024 12.8996 10.4548 12.2203 11.0702C11.5411 11.6855 10.6197 12.0312 9.65909 12.0312ZM9.65909 13.125C10.94 13.125 12.1684 12.6641 13.0741 11.8436C13.9798 11.0231 14.4886 9.91032 14.4886 8.75C14.4886 7.58968 13.9798 6.47688 13.0741 5.65641C12.1684 4.83594 10.94 4.375 9.65909 4.375C8.37822 4.375 7.1498 4.83594 6.24409 5.65641C5.33837 6.47688 4.82955 7.58968 4.82955 8.75C4.82955 9.91032 5.33837 11.0231 6.24409 11.8436C7.1498 12.6641 8.37822 13.125 9.65909 13.125ZM9.65909 0C9.8192 0 9.97275 0.057617 10.086 0.160176C10.1992 0.262735 10.2628 0.401835 10.2628 0.546875V2.73438C10.2628 2.87942 10.1992 3.01851 10.086 3.12107C9.97275 3.22363 9.8192 3.28125 9.65909 3.28125C9.49898 3.28125 9.34543 3.22363 9.23222 3.12107C9.119 3.01851 9.0554 2.87942 9.0554 2.73438V0.546875C9.0554 0.401835 9.119 0.262735 9.23222 0.160176C9.34543 0.057617 9.49898 0 9.65909 0ZM9.65909 14.2188C9.8192 14.2188 9.97275 14.2764 10.086 14.3789C10.1992 14.4815 10.2628 14.6206 10.2628 14.7656V16.9531C10.2628 17.0982 10.1992 17.2373 10.086 17.3398C9.97275 17.4424 9.8192 17.5 9.65909 17.5C9.49898 17.5 9.34543 17.4424 9.23222 17.3398C9.119 17.2373 9.0554 17.0982 9.0554 16.9531V14.7656C9.0554 14.6206 9.119 14.4815 9.23222 14.3789C9.34543 14.2764 9.49898 14.2188 9.65909 14.2188ZM19.3182 8.75C19.3182 8.89504 19.2546 9.03414 19.1414 9.1367C19.0282 9.23926 18.8746 9.29688 18.7145 9.29688H16.2997C16.1396 9.29688 15.9861 9.23926 15.8728 9.1367C15.7596 9.03414 15.696 8.89504 15.696 8.75C15.696 8.60496 15.7596 8.46586 15.8728 8.3633C15.9861 8.26074 16.1396 8.20312 16.2997 8.20312H18.7145C18.8746 8.20312 19.0282 8.26074 19.1414 8.3633C19.2546 8.46586 19.3182 8.60496 19.3182 8.75ZM3.62216 8.75C3.62216 8.89504 3.55856 9.03414 3.44534 9.1367C3.33213 9.23926 3.17858 9.29688 3.01847 9.29688H0.603693C0.443584 9.29688 0.290032 9.23926 0.176818 9.1367C0.0636032 9.03414 0 8.89504 0 8.75C0 8.60496 0.0636032 8.46586 0.176818 8.3633C0.290032 8.26074 0.443584 8.20312 0.603693 8.20312H3.01847C3.17858 8.20312 3.33213 8.26074 3.44534 8.3633C3.55856 8.46586 3.62216 8.60496 3.62216 8.75ZM16.4893 2.56266C16.6024 2.66521 16.666 2.80429 16.666 2.9493C16.666 3.09431 16.6024 3.23338 16.4893 3.33594L14.782 4.88359C14.7259 4.93437 14.6593 4.97463 14.586 5.00208C14.5127 5.02953 14.4341 5.04364 14.3548 5.04359C14.1946 5.04348 14.041 4.98574 13.9278 4.88305C13.8718 4.8322 13.8273 4.77185 13.797 4.70545C13.7667 4.63904 13.7511 4.56788 13.7512 4.49602C13.7513 4.3509 13.8151 4.21176 13.9284 4.10922L15.6357 2.56266C15.7489 2.46013 15.9024 2.40254 16.0625 2.40254C16.2225 2.40254 16.3761 2.46013 16.4893 2.56266ZM5.38977 12.6175C5.50295 12.7201 5.56653 12.8591 5.56653 13.0041C5.56653 13.1492 5.50295 13.2882 5.38977 13.3908L3.68253 14.9373C3.56867 15.037 3.41618 15.0921 3.25789 15.0908C3.0996 15.0896 2.94819 15.0321 2.83626 14.9307C2.72433 14.8293 2.66084 14.6921 2.65947 14.5487C2.65809 14.4053 2.71894 14.2672 2.82891 14.1641L4.53615 12.6175C4.64936 12.515 4.80288 12.4574 4.96296 12.4574C5.12304 12.4574 5.27656 12.515 5.38977 12.6175ZM16.4893 14.9373C16.3761 15.0399 16.2225 15.0975 16.0625 15.0975C15.9024 15.0975 15.7489 15.0399 15.6357 14.9373L13.9284 13.3908C13.8184 13.2876 13.7576 13.1495 13.759 13.0061C13.7603 12.8627 13.8238 12.7256 13.9358 12.6242C14.0477 12.5228 14.1991 12.4653 14.3574 12.464C14.5157 12.4628 14.6682 12.5179 14.782 12.6175L16.4893 14.1641C16.6024 14.2666 16.666 14.4057 16.666 14.5507C16.666 14.6957 16.6024 14.8348 16.4893 14.9373ZM5.38977 4.88359C5.27656 4.98612 5.12304 5.04371 4.96296 5.04371C4.80288 5.04371 4.64936 4.98612 4.53615 4.88359L2.82891 3.33594C2.77125 3.28549 2.72526 3.22515 2.69362 3.15842C2.66198 3.0917 2.64533 3.01994 2.64463 2.94733C2.64393 2.87471 2.65921 2.8027 2.68956 2.73549C2.71991 2.66829 2.76474 2.60723 2.82142 2.55588C2.87811 2.50453 2.94551 2.46392 3.0197 2.43643C3.09389 2.40893 3.17339 2.39509 3.25354 2.39572C3.3337 2.39635 3.41292 2.41144 3.48657 2.4401C3.56023 2.46876 3.62684 2.51042 3.68253 2.56266L5.38977 4.10922C5.44599 4.16002 5.4906 4.22037 5.52103 4.28681C5.55146 4.35325 5.56713 4.42447 5.56713 4.49641C5.56713 4.56834 5.55146 4.63957 5.52103 4.70601C5.4906 4.77245 5.44599 4.83279 5.38977 4.88359Z" fill="#494141"/>
</svg>
